<svg viewBox="0 0 100 100" fill="none" xmlns="http://www.w3.org/2000/svg">
<path fill-rule="evenodd" clip-rule="evenodd" d="M50 0C28.4609 0 11 17.4609 11 39V53.6812L2.60715 72.2902C0.988478 74.0485 0 76.396 0 78.9744C0 84.4264 4.41975 88.8462 9.87179 88.8462H22.6945C29.7296 95.7455 39.3679 100 50 100C60.6321 100 70.2704 95.7455 77.3055 88.8462H90.1282C95.5802 88.8462 100 84.4264 100 78.9744C100 76.1585 98.821 73.6179 96.9297 71.8195L89 54.2374V39C89 17.4609 71.5391 0 50 0ZM50 11C34.0611 11 21.14 23.9211 21.14 39.86V53.3944L14.8087 68.3762C13.6795 69.7287 13 71.4697 13 73.3695C13 77.6752 16.4905 81.1657 20.7962 81.1657H29.2432C34.491 86.597 41.8511 89.9744 50 89.9744C58.1489 89.9744 65.509 86.597 70.7569 81.1657H79.2038C83.5095 81.1657 87 77.6752 87 73.3695C87 71.2797 86.1778 69.3819 84.8391 67.9821L78.86 53.8338V39.86C78.86 23.9211 65.939 11 50 11Z" fill="white"/>
</svg>
